<?xml version="1.0" encoding="utf-8"?>
<!-- Generator: Adobe Illustrator 26.0.0, SVG Export Plug-In . SVG Version: 6.00 Build 0)  -->
<svg version="1.1" id="Layer_1" xmlns="http://www.w3.org/2000/svg" xmlns:xlink="http://www.w3.org/1999/xlink" x="0px" y="0px"
	 viewBox="0 0 64 64" style="enable-background:new 0 0 64 64;" xml:space="preserve">
<style type="text/css">
	.st0{fill:#66A786;}
</style>
<g>
	<g>
		<g>
			<path class="st0" d="M4.7,30.7V10h15v4.9H10v15.8H4.7z"/>
			<path class="st0" d="M22,30.7V10h15.6v4.9H27.3V18h8.5v4.7h-8.5v3.1h10.3v4.9H22z"/>
			<path class="st0" d="M49.8,30.9c-2.1,0-4-0.4-5.5-1.3c-1.6-0.9-2.8-2.1-3.7-3.7c-0.9-1.6-1.3-3.4-1.3-5.5c0-2.2,0.4-4,1.3-5.6
				c0.9-1.6,2.1-2.8,3.7-3.7s3.5-1.3,5.6-1.3c2.1,0,3.9,0.4,5.5,1.3c1.6,0.9,2.8,2.1,3.7,3.6c0.9,1.6,1.3,3.4,1.3,5.6
				c0,2.1-0.4,4-1.3,5.6c-0.9,1.6-2.1,2.9-3.7,3.8C53.8,30.5,51.9,30.9,49.8,30.9z M49.9,25.9c1.2,0,2.3-0.3,3-0.9
				c0.8-0.6,1.3-1.3,1.7-2.2c0.3-0.9,0.5-1.7,0.5-2.5c0-0.6-0.1-1.3-0.3-1.9c-0.2-0.7-0.5-1.3-0.9-1.8c-0.4-0.6-0.9-1-1.6-1.4
				c-0.7-0.4-1.5-0.5-2.5-0.5c-1.2,0-2.2,0.3-3,0.8c-0.8,0.6-1.3,1.3-1.7,2.1c-0.4,0.9-0.5,1.7-0.5,2.7c0,0.9,0.2,1.8,0.5,2.7
				c0.4,0.9,0.9,1.6,1.7,2.1C47.7,25.6,48.7,25.9,49.9,25.9z"/>
		</g>
	</g>
	<g>
		<g>
			<path d="M4.3,51V34.1h5.5l4.1,7.4l4.1-7.4h5.3V51H19V40.3l-4.3,7.4H13l-4.3-7.4V51H4.3z"/>
			<path d="M26.5,51V34.1h4.3v9.5l7.4-9.5h3.4V51h-4.3v-9.3L29.9,51H26.5z"/>
			<path d="M44.8,51V34.1h4.3v6.6h6.1v-6.6h4.3V51h-4.3v-6.4h-6.1V51H44.8z"/>
		</g>
	</g>
</g>
</svg>
